<svg width="26" height="26" viewBox="0 0 26 26" fill="none" xmlns="http://www.w3.org/2000/svg">
<g clip-path="url(#clip0_913_740)">
<path d="M13.205 0.704987C14.0692 0.704987 14.7675 1.40323 14.7675 2.26749V3.96182C18.6932 4.61612 21.7938 7.71671 22.4481 11.6425H24.1425C25.0067 11.6425 25.705 12.3407 25.705 13.205C25.705 14.0692 25.0067 14.7675 24.1425 14.7675H22.4481C21.7938 18.6933 18.6932 21.7939 14.7675 22.4482V24.1425C14.7675 25.0067 14.0692 25.705 13.205 25.705C12.3407 25.705 11.6425 25.0067 11.6425 24.1425V22.4482C7.71667 21.7939 4.61609 18.6933 3.96179 14.7675H2.26746C1.4032 14.7675 0.704956 14.0692 0.704956 13.205C0.704956 12.3407 1.4032 11.6425 2.26746 11.6425H3.96179C4.61609 7.71671 7.71667 4.61612 11.6425 3.96182V2.26749C11.6425 1.40323 12.3407 0.704987 13.205 0.704987ZM6.95496 13.205C6.95496 14.8626 7.61344 16.4523 8.78554 17.6244C9.95764 18.7965 11.5474 19.455 13.205 19.455C14.8626 19.455 16.4523 18.7965 17.6244 17.6244C18.7965 16.4523 19.455 14.8626 19.455 13.205C19.455 11.5474 18.7965 9.95767 17.6244 8.78557C16.4523 7.61347 14.8626 6.95499 13.205 6.95499C11.5474 6.95499 9.95764 7.61347 8.78554 8.78557C7.61344 9.95767 6.95496 11.5474 6.95496 13.205ZM13.205 9.29874C14.241 9.29874 15.2345 9.71029 15.9671 10.4429C16.6997 11.1754 17.1112 12.169 17.1112 13.205C17.1112 14.241 16.6997 15.2346 15.9671 15.9671C15.2345 16.6997 14.241 17.1112 13.205 17.1112C12.169 17.1112 11.1754 16.6997 10.4428 15.9671C9.71026 15.2346 9.29871 14.241 9.29871 13.205C9.29871 12.169 9.71026 11.1754 10.4428 10.4429C11.1754 9.71029 12.169 9.29874 13.205 9.29874Z" fill="#647AFF"/>
</g>
<defs>
<clipPath id="clip0_913_740">
<rect width="25" height="25" fill="white" transform="translate(0.704956 0.704987)"/>
</clipPath>
</defs>
</svg>
