<svg width="60" height="50" viewBox="0 0 60 50" fill="none" xmlns="http://www.w3.org/2000/svg">
<path d="M31.4567 0.395508L58.4567 16.0205C59.9004 16.8604 60.4254 18.7646 59.6192 20.2686C58.8129 21.7725 56.9848 22.3193 55.5411 21.4795L30.0036 6.7041L4.45669 21.4893C3.01294 22.3291 1.18481 21.7822 0.378565 20.2783C-0.427685 18.7744 0.0973145 16.8701 1.54106 16.0303L28.5504 0.395508C29.4598 -0.131836 30.5567 -0.131836 31.4661 0.395508H31.4567ZM30.0036 15.6299C30.9981 15.6299 31.952 16.0414 32.6552 16.774C33.3585 17.5066 33.7536 18.5001 33.7536 19.5361C33.7536 20.5721 33.3585 21.5657 32.6552 22.2983C31.952 23.0308 30.9981 23.4424 30.0036 23.4424C29.009 23.4424 28.0552 23.0308 27.3519 22.2983C26.6487 21.5657 26.2536 20.5721 26.2536 19.5361C26.2536 18.5001 26.6487 17.5066 27.3519 16.774C28.0552 16.0414 29.009 15.6299 30.0036 15.6299ZM13.5036 25.0049C14.4981 25.0049 15.452 25.4164 16.1552 26.149C16.8585 26.8816 17.2536 27.8751 17.2536 28.9111C17.2536 29.9471 16.8585 30.9407 16.1552 31.6733C15.452 32.4058 14.4981 32.8174 13.5036 32.8174C12.509 32.8174 11.5552 32.4058 10.8519 31.6733C10.1487 30.9407 9.75356 29.9471 9.75356 28.9111C9.75356 27.8751 10.1487 26.8816 10.8519 26.149C11.5552 25.4164 12.509 25.0049 13.5036 25.0049ZM42.7536 28.9111C42.7536 27.8751 43.1487 26.8816 43.8519 26.149C44.5552 25.4164 45.509 25.0049 46.5036 25.0049C47.4981 25.0049 48.452 25.4164 49.1552 26.149C49.8585 26.8816 50.2536 27.8751 50.2536 28.9111C50.2536 29.9471 49.8585 30.9407 49.1552 31.6733C48.452 32.4058 47.4981 32.8174 46.5036 32.8174C45.509 32.8174 44.5552 32.4058 43.8519 31.6733C43.1487 30.9407 42.7536 29.9471 42.7536 28.9111ZM21.2754 47.9932L18.7536 43.1201V46.8799C18.7536 48.6084 17.4129 50.0049 15.7536 50.0049H11.2536C9.59419 50.0049 8.25356 48.6084 8.25356 46.8799V43.1201L5.73169 47.9932C5.14106 49.1357 3.78169 49.5557 2.68481 48.9502C1.58794 48.3447 1.18481 46.9189 1.76606 45.7764L5.31919 38.9111C6.75356 36.1279 9.54731 34.3896 12.5848 34.3896H14.4129C15.9411 34.3896 17.4036 34.8291 18.6692 35.6201L21.8192 29.5361C23.2536 26.7529 26.0473 25.0146 29.0848 25.0146H30.9129C33.9504 25.0146 36.7348 26.7529 38.1786 29.5361L41.3286 35.6201C42.5942 34.8291 44.0567 34.3896 45.5848 34.3896H47.4129C50.4504 34.3896 53.2348 36.1279 54.6786 38.9111L58.2317 45.7764C58.8223 46.9189 58.4098 48.335 57.3129 48.9502C56.2161 49.5654 54.8567 49.1357 54.2661 47.9932L51.7536 43.1201V46.8799C51.7536 48.6084 50.4129 50.0049 48.7536 50.0049H44.2536C42.5942 50.0049 41.2536 48.6084 41.2536 46.8799V43.1201L38.7317 47.9932C38.1411 49.1357 36.7817 49.5557 35.6848 48.9502C34.5879 48.3447 34.1848 46.9189 34.7661 45.7764L38.1692 39.1846C38.0098 39.0186 37.8692 38.833 37.7661 38.6182L35.2536 33.7451V39.0674C35.2536 40.7959 33.9129 42.1924 32.2536 42.1924H27.7536C26.0942 42.1924 24.7536 40.7959 24.7536 39.0674V33.7451L22.2317 38.6182C22.1192 38.833 21.9879 39.0186 21.8286 39.1846L25.2317 45.7764C25.8223 46.9189 25.4098 48.335 24.3129 48.9502C23.2161 49.5654 21.8567 49.1357 21.2661 47.9932H21.2754Z" fill="#647AFF"/>
</svg>
