<svg width="60" height="50" viewBox="0 0 60 50" fill="none" xmlns="http://www.w3.org/2000/svg">
<path d="M31.4531 0.390625L58.4531 16.0156C59.8968 16.8555 60.4218 18.7598 59.6156 20.2637C58.8093 21.7676 56.9812 22.3145 55.5375 21.4746L29.9999 6.69922L4.45307 21.4844C3.00932 22.3242 1.1812 21.7773 0.374948 20.2734C-0.431302 18.7695 0.0936981 16.8652 1.53745 16.0254L28.5468 0.390625C29.4562 -0.136719 30.5531 -0.136719 31.4624 0.390625H31.4531ZM29.9999 15.625C30.9945 15.625 31.9483 16.0365 32.6516 16.7691C33.3549 17.5017 33.7499 18.4952 33.7499 19.5312C33.7499 20.5673 33.3549 21.5608 32.6516 22.2934C31.9483 23.0259 30.9945 23.4375 29.9999 23.4375C29.0054 23.4375 28.0516 23.0259 27.3483 22.2934C26.645 21.5608 26.2499 20.5673 26.2499 19.5312C26.2499 18.4952 26.645 17.5017 27.3483 16.7691C28.0516 16.0365 29.0054 15.625 29.9999 15.625ZM13.4999 25C14.4945 25 15.4483 25.4115 16.1516 26.1441C16.8549 26.8767 17.2499 27.8702 17.2499 28.9062C17.2499 29.9422 16.8549 30.9358 16.1516 31.6684C15.4483 32.4009 14.4945 32.8125 13.4999 32.8125C12.5054 32.8125 11.5516 32.4009 10.8483 31.6684C10.145 30.9358 9.74995 29.9422 9.74995 28.9062C9.74995 27.8702 10.145 26.8767 10.8483 26.1441C11.5516 25.4115 12.5054 25 13.4999 25ZM42.7499 28.9062C42.7499 27.8702 43.145 26.8767 43.8483 26.1441C44.5516 25.4115 45.5054 25 46.4999 25C47.4945 25 48.4483 25.4115 49.1516 26.1441C49.8549 26.8767 50.2499 27.8702 50.2499 28.9062C50.2499 29.9422 49.8549 30.9358 49.1516 31.6684C48.4483 32.4009 47.4945 32.8125 46.4999 32.8125C45.5054 32.8125 44.5516 32.4009 43.8483 31.6684C43.145 30.9358 42.7499 29.9422 42.7499 28.9062ZM21.2718 47.9883L18.7499 43.1152V46.875C18.7499 48.6035 17.4093 50 15.7499 50H11.2499C9.59057 50 8.24995 48.6035 8.24995 46.875V43.1152L5.72807 47.9883C5.13745 49.1309 3.77807 49.5508 2.6812 48.9453C1.58432 48.3398 1.1812 46.9141 1.76245 45.7715L5.31557 38.9062C6.74995 36.123 9.5437 34.3848 12.5812 34.3848H14.4093C15.9374 34.3848 17.3999 34.8242 18.6656 35.6152L21.8156 29.5312C23.2499 26.748 26.0437 25.0098 29.0812 25.0098H30.9093C33.9468 25.0098 36.7312 26.748 38.1749 29.5312L41.3249 35.6152C42.5906 34.8242 44.0531 34.3848 45.5812 34.3848H47.4093C50.4468 34.3848 53.2312 36.123 54.6749 38.9062L58.2281 45.7715C58.8187 46.9141 58.4062 48.3301 57.3093 48.9453C56.2124 49.5605 54.8531 49.1309 54.2624 47.9883L51.7499 43.1152V46.875C51.7499 48.6035 50.4093 50 48.7499 50H44.2499C42.5906 50 41.2499 48.6035 41.2499 46.875V43.1152L38.7281 47.9883C38.1374 49.1309 36.7781 49.5508 35.6812 48.9453C34.5843 48.3398 34.1812 46.9141 34.7624 45.7715L38.1656 39.1797C38.0062 39.0137 37.8656 38.8281 37.7624 38.6133L35.2499 33.7402V39.0625C35.2499 40.791 33.9093 42.1875 32.2499 42.1875H27.7499C26.0906 42.1875 24.7499 40.791 24.7499 39.0625V33.7402L22.2281 38.6133C22.1156 38.8281 21.9843 39.0137 21.8249 39.1797L25.2281 45.7715C25.8187 46.9141 25.4062 48.3301 24.3093 48.9453C23.2124 49.5605 21.8531 49.1309 21.2624 47.9883H21.2718Z" fill="white"/>
</svg>
