<svg width="26" height="26" viewBox="0 0 26 26" fill="none" xmlns="http://www.w3.org/2000/svg">
<g clip-path="url(#clip0_913_742)">
<path d="M21.0175 10.8612C21.0175 13.1024 20.2899 15.1728 19.0643 16.8524L25.246 23.039C25.8563 23.6493 25.8563 24.6405 25.246 25.2509C24.6356 25.8612 23.6444 25.8612 23.0341 25.2509L16.8524 19.0644C15.1727 20.2948 13.1024 21.0175 10.8612 21.0175C5.25085 21.0175 0.704956 16.4716 0.704956 10.8612C0.704956 5.25089 5.25085 0.704987 10.8612 0.704987C16.4716 0.704987 21.0175 5.25089 21.0175 10.8612ZM14.7675 9.29874C14.7675 7.14053 13.0194 5.39249 10.8612 5.39249C8.703 5.39249 6.95496 7.14053 6.95496 9.29874C6.95496 11.6815 9.22546 14.748 10.3046 16.0663C10.5975 16.4228 11.1249 16.4228 11.413 16.0663C12.4921 14.748 14.7626 11.6815 14.7626 9.29874H14.7675ZM9.29871 9.29874C9.29871 8.88434 9.46333 8.48691 9.75635 8.19388C10.0494 7.90086 10.4468 7.73624 10.8612 7.73624C11.2756 7.73624 11.673 7.90086 11.9661 8.19388C12.2591 8.48691 12.4237 8.88434 12.4237 9.29874C12.4237 9.71314 12.2591 10.1106 11.9661 10.4036C11.673 10.6966 11.2756 10.8612 10.8612 10.8612C10.4468 10.8612 10.0494 10.6966 9.75635 10.4036C9.46333 10.1106 9.29871 9.71314 9.29871 9.29874Z" fill="#647AFF"/>
</g>
<defs>
<clipPath id="clip0_913_742">
<rect width="25" height="25" fill="white" transform="translate(0.704956 0.704987)"/>
</clipPath>
</defs>
</svg>
