<svg width="55" height="50" viewBox="0 0 55 50" fill="none" xmlns="http://www.w3.org/2000/svg">
<g clip-path="url(#clip0_1_39)">
<path d="M29.0297 0.527344C28.1016 -0.175781 26.8984 -0.175781 25.9703 0.527344L14.2914 9.375H4.125C1.84766 9.375 0 11.4746 0 14.0625V45.3125C0 47.9004 1.84766 50 4.125 50H50.875C53.1523 50 55 47.9004 55 45.3125V14.0625C55 11.4746 53.1523 9.375 50.875 9.375H40.7086L29.0297 0.527344ZM22 40.625C22 37.1777 24.4664 34.375 27.5 34.375C30.5336 34.375 33 37.1777 33 40.625V50H22V40.625ZM8.25 18.75H11C11.7563 18.75 12.375 19.4531 12.375 20.3125V26.5625C12.375 27.4219 11.7563 28.125 11 28.125H8.25C7.49375 28.125 6.875 27.4219 6.875 26.5625V20.3125C6.875 19.4531 7.49375 18.75 8.25 18.75ZM42.625 20.3125C42.625 19.4531 43.2437 18.75 44 18.75H46.75C47.5063 18.75 48.125 19.4531 48.125 20.3125V26.5625C48.125 27.4219 47.5063 28.125 46.75 28.125H44C43.2437 28.125 42.625 27.4219 42.625 26.5625V20.3125ZM8.25 31.25H11C11.7563 31.25 12.375 31.9531 12.375 32.8125V39.0625C12.375 39.9219 11.7563 40.625 11 40.625H8.25C7.49375 40.625 6.875 39.9219 6.875 39.0625V32.8125C6.875 31.9531 7.49375 31.25 8.25 31.25ZM42.625 32.8125C42.625 31.9531 43.2437 31.25 44 31.25H46.75C47.5063 31.25 48.125 31.9531 48.125 32.8125V39.0625C48.125 39.9219 47.5063 40.625 46.75 40.625H44C43.2437 40.625 42.625 39.9219 42.625 39.0625V32.8125ZM19.9375 17.1875C19.9375 14.9083 20.7343 12.7224 22.1525 11.1108C23.5707 9.49916 25.4943 8.59375 27.5 8.59375C29.5057 8.59375 31.4293 9.49916 32.8475 11.1108C34.2657 12.7224 35.0625 14.9083 35.0625 17.1875C35.0625 19.4667 34.2657 21.6526 32.8475 23.2642C31.4293 24.8758 29.5057 25.7812 27.5 25.7812C25.4943 25.7812 23.5707 24.8758 22.1525 23.2642C20.7343 21.6526 19.9375 19.4667 19.9375 17.1875ZM27.5 12.5C26.7437 12.5 26.125 13.2031 26.125 14.0625V17.1875C26.125 18.0469 26.7437 18.75 27.5 18.75H30.25C31.0063 18.75 31.625 18.0469 31.625 17.1875C31.625 16.3281 31.0063 15.625 30.25 15.625H28.875V14.0625C28.875 13.2031 28.2563 12.5 27.5 12.5Z" fill="white"/>
</g>
<defs>
<clipPath id="clip0_1_39">
<rect width="55" height="50" fill="white"/>
</clipPath>
</defs>
</svg>
