<svg width="35" height="40" viewBox="0 0 35 40" fill="none" xmlns="http://www.w3.org/2000/svg">
<path d="M33.4091 15H31.8182C30.9392 15 30.2273 15.5594 30.2273 16.25V20C30.2273 25.8438 23.8149 30.5328 16.2283 29.9516C9.61605 29.4445 4.77273 24.7742 4.77273 19.5547V16.25C4.77273 15.5594 4.0608 15 3.18182 15H1.59091C0.711932 15 0 15.5594 0 16.25V19.3875C0 26.3906 6.36065 32.6336 15.1136 33.582V36.25H9.54545C8.66648 36.25 7.95455 36.8094 7.95455 37.5V38.75C7.95455 39.4406 8.66648 40 9.54545 40H25.4545C26.3335 40 27.0455 39.4406 27.0455 38.75V37.5C27.0455 36.8094 26.3335 36.25 25.4545 36.25H19.8864V33.6117C28.4087 32.693 35 26.9453 35 20V16.25C35 15.5594 34.2881 15 33.4091 15ZM17.5 27.5C22.7719 27.5 27.0455 24.1422 27.0455 20H18.5609C17.9753 20 17.5 19.7203 17.5 19.375V18.125C17.5 17.7797 17.9753 17.5 18.5609 17.5H27.0455V15H18.5609C17.9753 15 17.5 14.7203 17.5 14.375V13.125C17.5 12.7797 17.9753 12.5 18.5609 12.5H27.0455V10H18.5609C17.9753 10 17.5 9.72031 17.5 9.375V8.125C17.5 7.77969 17.9753 7.5 18.5609 7.5H27.0455C27.0455 3.35781 22.7719 0 17.5 0C12.2281 0 7.95455 3.35781 7.95455 7.5V20C7.95455 24.1422 12.2281 27.5 17.5 27.5Z" fill="#647AFF"/>
</svg>
