<svg width="35" height="40" viewBox="0 0 35 40" fill="none" xmlns="http://www.w3.org/2000/svg">
<path d="M24.0625 7.5C24.0625 3.35781 21.1244 0 17.5 0C13.8756 0 10.9375 3.35781 10.9375 7.5C10.9375 11.6422 13.8756 15 17.5 15C21.1244 15 24.0625 11.6422 24.0625 7.5ZM15.9681 18.8359C11.9123 15.9984 5.34297 15.2188 2.03711 15.0039C0.92627 14.932 0 15.8992 0 17.1203V34.5266C0 35.6461 0.792285 36.5797 1.81084 36.6398C4.79541 36.8187 10.8336 37.4742 15.0069 39.8766C15.6475 40.2453 16.4069 39.743 16.4069 38.9492V19.7313C16.4062 19.3664 16.2483 19.032 15.9681 18.8359ZM32.9629 15.0039C29.6577 15.218 23.0877 15.9984 19.0326 18.8359C18.7523 19.032 18.5944 19.3797 18.5944 19.7445V38.9469C18.5944 39.743 19.356 40.2461 19.9985 39.8766C24.1712 37.4766 30.206 36.8211 33.1898 36.6422C34.2084 36.5812 35.0007 35.6477 35.0007 34.5281V17.1203C35 15.8992 34.0737 14.932 32.9629 15.0039Z" fill="#647AFF"/>
</svg>
